<mxfile host="app.diagrams.net" agent="Mozilla/5.0 (Windows NT 10.0; Win64; x64) AppleWebKit/537.36 (KHTML, like Gecko) Chrome/137.0.0.0 Safari/537.36" version="27.1.6">
  <diagram name="第 1 页" id="5bILjZRPvjiLZGf3j2yL">
    <mxGraphModel dx="1366" dy="711" grid="1" gridSize="10" guides="1" tooltips="1" connect="1" arrows="1" fold="1" page="1" pageScale="1" pageWidth="827" pageHeight="1169" math="0" shadow="0">
      <root>
        <mxCell id="0" />
        <mxCell id="1" parent="0" />
        <mxCell id="vpulQXixBHZkjmUsnH6r-54" value="" style="shape=image;verticalLabelPosition=bottom;labelBackgroundColor=default;verticalAlign=top;aspect=fixed;imageAspect=0;image=data:image/png,iVBORw0KGgoAAAANSUhEUgAAAGcAAAAiCAMAAAECDQeCAAAAAXNSR0IArs4c6QAAAARnQU1BAACxjwv8YQUAAAB4UExURQAAACBAQP///y05Ri43SSw4SC04SC03SPf5+9DU2i44SPf7/S03SPf6/S43SDQ+Ti03Sfj7/C03SPf7/C43SS03SISMlWx0gPf7/C03SEBKWlNcai03SICHkoWNmJKZor7CycTJz8vP1dfc397i5eTn6+vt8ff6/Mis/hYAAAAcdFJOUwAICCg4QGB4eH2Ah5+fp62vt7+/z9/f5+f39/1kvjbvAAAACXBIWXMAABcRAAAXEQHKJvM/AAABCklEQVRIS+2WDQ+CIBCG6bvsGyzLrgyz+v//sMOuLW2ygw3XWo9ze1HuDg4OFTXub9hbkCokAUBBxi+oT4m2tl4OSk9VwwoBXjUD1OcDiz/5LVZLBeWVJjXRwYkdAC3NnfHEFLNBnvloaUlhIxgpI8nGRCLJpxh6Do8UH+9EeDDAMmIvqxG7rtjfKCSbtUcWbGXdBHjkTXnZRKT4+M3H3WbbWg6+eU199uhgrlJIlAJQTLHBCurLGdYQzkyIKJgQIobjlUYajLEJ6XyaOqMBDzj3jeBMW3GKrfk0uO9SZ8z/Ultxfmh9yji/tj7/OnWm1TqN4Ywq11pfzKMAIj9NMM6ThZRyFEqseuIB6nHWWx54mb4AAAAASUVORK5CYII=;" vertex="1" parent="1">
          <mxGeometry x="510" y="400" width="100" height="30" as="geometry" />
        </mxCell>
        <mxCell id="vpulQXixBHZkjmUsnH6r-55" value="" style="shape=image;verticalLabelPosition=bottom;labelBackgroundColor=default;verticalAlign=top;aspect=fixed;imageAspect=0;image=data:image/png,iVBORw0KGgoAAAANSUhEUgAAAGcAAAAiCAMAAAECDQeCAAAAAXNSR0IArs4c6QAAAARnQU1BAACxjwv8YQUAAAB4UExURQAAACBAQP///y05Ri43SSw4SC04SC03SPf5+9DU2i44SPf7/S03SPf6/S43SDQ+Ti03Sfj7/C03SPf7/C43SS03SISMlWx0gPf7/C03SEBKWlNcai03SICHkoWNmJKZor7CycTJz8vP1dfc397i5eTn6+vt8ff6/Mis/hYAAAAcdFJOUwAICCg4QGB4eH2Ah5+fp62vt7+/z9/f5+f39/1kvjbvAAAACXBIWXMAABcRAAAXEQHKJvM/AAABCklEQVRIS+2WDQ+CIBCG6bvsGyzLrgyz+v//sMOuLW2ygw3XWo9ze1HuDg4OFTXub9hbkCokAUBBxi+oT4m2tl4OSk9VwwoBXjUD1OcDiz/5LVZLBeWVJjXRwYkdAC3NnfHEFLNBnvloaUlhIxgpI8nGRCLJpxh6Do8UH+9EeDDAMmIvqxG7rtjfKCSbtUcWbGXdBHjkTXnZRKT4+M3H3WbbWg6+eU199uhgrlJIlAJQTLHBCurLGdYQzkyIKJgQIobjlUYajLEJ6XyaOqMBDzj3jeBMW3GKrfk0uO9SZ8z/Ultxfmh9yji/tj7/OnWm1TqN4Ywq11pfzKMAIj9NMM6ThZRyFEqseuIB6nHWWx54mb4AAAAASUVORK5CYII=;" vertex="1" parent="1">
          <mxGeometry x="400" y="400" width="100" height="30" as="geometry" />
        </mxCell>
      </root>
    </mxGraphModel>
  </diagram>
</mxfile>
